<mxfile host="app.diagrams.net" agent="Mozilla/5.0 (Windows NT 10.0; Win64; x64; rv:130.0) Gecko/20100101 Firefox/130.0" version="24.7.14">
  <diagram name="Page-1" id="CuK857lkOsUYa47Mh3Yu">
    <mxGraphModel dx="1588" dy="864" grid="1" gridSize="10" guides="1" tooltips="1" connect="1" arrows="1" fold="1" page="1" pageScale="1" pageWidth="827" pageHeight="1169" math="0" shadow="0">
      <root>
        <mxCell id="0" />
        <mxCell id="1" parent="0" />
        <mxCell id="mlUw1hy7TO0qhW8gap6X-10" value="Pasien" style="swimlane;horizontal=0;whiteSpace=wrap;html=1;" vertex="1" parent="1">
          <mxGeometry x="80" y="160" width="1160" height="160" as="geometry" />
        </mxCell>
        <mxCell id="mlUw1hy7TO0qhW8gap6X-99" value="" style="ellipse;whiteSpace=wrap;html=1;aspect=fixed;strokeColor=default;shadow=1;strokeWidth=4;" vertex="1" parent="mlUw1hy7TO0qhW8gap6X-10">
          <mxGeometry x="1050" y="60" width="35" height="35" as="geometry" />
        </mxCell>
        <mxCell id="mlUw1hy7TO0qhW8gap6X-2" value="" style="ellipse;whiteSpace=wrap;html=1;aspect=fixed;" vertex="1" parent="mlUw1hy7TO0qhW8gap6X-10">
          <mxGeometry x="40" y="62.5" width="35" height="35" as="geometry" />
        </mxCell>
        <mxCell id="mlUw1hy7TO0qhW8gap6X-6" value="Pendaftaran Pasien" style="rounded=1;whiteSpace=wrap;html=1;" vertex="1" parent="mlUw1hy7TO0qhW8gap6X-10">
          <mxGeometry x="120" y="60" width="120" height="40" as="geometry" />
        </mxCell>
        <mxCell id="mlUw1hy7TO0qhW8gap6X-7" style="edgeStyle=orthogonalEdgeStyle;rounded=0;orthogonalLoop=1;jettySize=auto;html=1;entryX=0;entryY=0.5;entryDx=0;entryDy=0;" edge="1" parent="mlUw1hy7TO0qhW8gap6X-10" source="mlUw1hy7TO0qhW8gap6X-2" target="mlUw1hy7TO0qhW8gap6X-6">
          <mxGeometry relative="1" as="geometry" />
        </mxCell>
        <mxCell id="mlUw1hy7TO0qhW8gap6X-37" value="Pasien Menunggu" style="rounded=1;whiteSpace=wrap;html=1;" vertex="1" parent="mlUw1hy7TO0qhW8gap6X-10">
          <mxGeometry x="400" y="57.5" width="120" height="40" as="geometry" />
        </mxCell>
        <mxCell id="mlUw1hy7TO0qhW8gap6X-70" value="Rawat Inap" style="rounded=1;whiteSpace=wrap;html=1;" vertex="1" parent="mlUw1hy7TO0qhW8gap6X-10">
          <mxGeometry x="700" y="57.5" width="120" height="40" as="geometry" />
        </mxCell>
        <mxCell id="mlUw1hy7TO0qhW8gap6X-101" style="edgeStyle=orthogonalEdgeStyle;rounded=0;orthogonalLoop=1;jettySize=auto;html=1;entryX=0;entryY=0.5;entryDx=0;entryDy=0;" edge="1" parent="mlUw1hy7TO0qhW8gap6X-10" source="mlUw1hy7TO0qhW8gap6X-88" target="mlUw1hy7TO0qhW8gap6X-99">
          <mxGeometry relative="1" as="geometry" />
        </mxCell>
        <mxCell id="mlUw1hy7TO0qhW8gap6X-88" value="Pasien menuju rumah sakit rujukan" style="rounded=1;whiteSpace=wrap;html=1;" vertex="1" parent="mlUw1hy7TO0qhW8gap6X-10">
          <mxGeometry x="890" y="52.5" width="120" height="50" as="geometry" />
        </mxCell>
        <mxCell id="mlUw1hy7TO0qhW8gap6X-12" value="Staff Layanan" style="swimlane;horizontal=0;whiteSpace=wrap;html=1;" vertex="1" parent="1">
          <mxGeometry x="80" y="320" width="1160" height="330" as="geometry" />
        </mxCell>
        <mxCell id="mlUw1hy7TO0qhW8gap6X-24" value="" style="edgeStyle=orthogonalEdgeStyle;rounded=0;orthogonalLoop=1;jettySize=auto;html=1;" edge="1" parent="mlUw1hy7TO0qhW8gap6X-12" source="mlUw1hy7TO0qhW8gap6X-21" target="mlUw1hy7TO0qhW8gap6X-22">
          <mxGeometry relative="1" as="geometry" />
        </mxCell>
        <mxCell id="mlUw1hy7TO0qhW8gap6X-21" value="Input data Pasien" style="rounded=1;whiteSpace=wrap;html=1;" vertex="1" parent="mlUw1hy7TO0qhW8gap6X-12">
          <mxGeometry x="120" y="20" width="120" height="40" as="geometry" />
        </mxCell>
        <mxCell id="mlUw1hy7TO0qhW8gap6X-26" value="" style="edgeStyle=orthogonalEdgeStyle;rounded=0;orthogonalLoop=1;jettySize=auto;html=1;" edge="1" parent="mlUw1hy7TO0qhW8gap6X-12" source="mlUw1hy7TO0qhW8gap6X-22" target="mlUw1hy7TO0qhW8gap6X-25">
          <mxGeometry relative="1" as="geometry" />
        </mxCell>
        <mxCell id="mlUw1hy7TO0qhW8gap6X-22" value="Verifikasi data Pasien" style="rounded=1;whiteSpace=wrap;html=1;" vertex="1" parent="mlUw1hy7TO0qhW8gap6X-12">
          <mxGeometry x="120" y="80" width="120" height="40" as="geometry" />
        </mxCell>
        <mxCell id="mlUw1hy7TO0qhW8gap6X-28" value="" style="edgeStyle=orthogonalEdgeStyle;rounded=0;orthogonalLoop=1;jettySize=auto;html=1;" edge="1" parent="mlUw1hy7TO0qhW8gap6X-12" source="mlUw1hy7TO0qhW8gap6X-25" target="mlUw1hy7TO0qhW8gap6X-27">
          <mxGeometry relative="1" as="geometry" />
        </mxCell>
        <mxCell id="mlUw1hy7TO0qhW8gap6X-29" value="baru" style="edgeLabel;html=1;align=center;verticalAlign=middle;resizable=0;points=[];" vertex="1" connectable="0" parent="mlUw1hy7TO0qhW8gap6X-28">
          <mxGeometry x="-0.4349" relative="1" as="geometry">
            <mxPoint as="offset" />
          </mxGeometry>
        </mxCell>
        <mxCell id="mlUw1hy7TO0qhW8gap6X-31" value="" style="edgeStyle=orthogonalEdgeStyle;rounded=0;orthogonalLoop=1;jettySize=auto;html=1;" edge="1" parent="mlUw1hy7TO0qhW8gap6X-12" source="mlUw1hy7TO0qhW8gap6X-25" target="mlUw1hy7TO0qhW8gap6X-30">
          <mxGeometry relative="1" as="geometry" />
        </mxCell>
        <mxCell id="mlUw1hy7TO0qhW8gap6X-35" value="lama" style="edgeLabel;html=1;align=center;verticalAlign=middle;resizable=0;points=[];" vertex="1" connectable="0" parent="mlUw1hy7TO0qhW8gap6X-31">
          <mxGeometry x="0.2431" y="1" relative="1" as="geometry">
            <mxPoint as="offset" />
          </mxGeometry>
        </mxCell>
        <mxCell id="mlUw1hy7TO0qhW8gap6X-25" value="" style="rhombus;whiteSpace=wrap;html=1;rounded=1;" vertex="1" parent="mlUw1hy7TO0qhW8gap6X-12">
          <mxGeometry x="155" y="150" width="50" height="40" as="geometry" />
        </mxCell>
        <mxCell id="mlUw1hy7TO0qhW8gap6X-36" style="edgeStyle=orthogonalEdgeStyle;rounded=0;orthogonalLoop=1;jettySize=auto;html=1;entryX=1;entryY=0.5;entryDx=0;entryDy=0;" edge="1" parent="mlUw1hy7TO0qhW8gap6X-12" source="mlUw1hy7TO0qhW8gap6X-27" target="mlUw1hy7TO0qhW8gap6X-30">
          <mxGeometry relative="1" as="geometry" />
        </mxCell>
        <mxCell id="mlUw1hy7TO0qhW8gap6X-27" value="Pembuatan Rekam medis baru" style="rounded=1;whiteSpace=wrap;html=1;" vertex="1" parent="mlUw1hy7TO0qhW8gap6X-12">
          <mxGeometry x="240" y="150" width="120" height="40" as="geometry" />
        </mxCell>
        <mxCell id="mlUw1hy7TO0qhW8gap6X-30" value="Memriksa Jadwal Doker " style="rounded=1;whiteSpace=wrap;html=1;" vertex="1" parent="mlUw1hy7TO0qhW8gap6X-12">
          <mxGeometry x="120" y="220" width="120" height="40" as="geometry" />
        </mxCell>
        <mxCell id="mlUw1hy7TO0qhW8gap6X-86" value="Rekam medis pasien ke rumah sakit tujuan" style="rounded=1;whiteSpace=wrap;html=1;" vertex="1" parent="mlUw1hy7TO0qhW8gap6X-12">
          <mxGeometry x="890" y="150" width="120" height="50" as="geometry" />
        </mxCell>
        <mxCell id="mlUw1hy7TO0qhW8gap6X-19" value="Laboratorium" style="swimlane;horizontal=0;whiteSpace=wrap;html=1;startSize=23;" vertex="1" parent="1">
          <mxGeometry x="80" y="880" width="1160" height="250" as="geometry" />
        </mxCell>
        <mxCell id="mlUw1hy7TO0qhW8gap6X-68" value="Melakukan Test Laboratorium" style="rounded=1;whiteSpace=wrap;html=1;" vertex="1" parent="mlUw1hy7TO0qhW8gap6X-19">
          <mxGeometry x="400" y="40" width="120" height="60" as="geometry" />
        </mxCell>
        <mxCell id="mlUw1hy7TO0qhW8gap6X-23" value="" style="edgeStyle=orthogonalEdgeStyle;rounded=0;orthogonalLoop=1;jettySize=auto;html=1;" edge="1" parent="1" source="mlUw1hy7TO0qhW8gap6X-6" target="mlUw1hy7TO0qhW8gap6X-21">
          <mxGeometry relative="1" as="geometry" />
        </mxCell>
        <mxCell id="mlUw1hy7TO0qhW8gap6X-17" value="Dokter" style="swimlane;horizontal=0;whiteSpace=wrap;html=1;" vertex="1" parent="1">
          <mxGeometry x="80" y="650" width="1160" height="230" as="geometry" />
        </mxCell>
        <mxCell id="mlUw1hy7TO0qhW8gap6X-52" value="" style="edgeStyle=orthogonalEdgeStyle;rounded=0;orthogonalLoop=1;jettySize=auto;html=1;" edge="1" parent="mlUw1hy7TO0qhW8gap6X-17" source="mlUw1hy7TO0qhW8gap6X-45" target="mlUw1hy7TO0qhW8gap6X-48">
          <mxGeometry relative="1" as="geometry" />
        </mxCell>
        <mxCell id="mlUw1hy7TO0qhW8gap6X-54" value="" style="edgeStyle=orthogonalEdgeStyle;rounded=0;orthogonalLoop=1;jettySize=auto;html=1;exitX=0.5;exitY=1;exitDx=0;exitDy=0;" edge="1" parent="mlUw1hy7TO0qhW8gap6X-17" source="mlUw1hy7TO0qhW8gap6X-48" target="mlUw1hy7TO0qhW8gap6X-53">
          <mxGeometry relative="1" as="geometry" />
        </mxCell>
        <mxCell id="mlUw1hy7TO0qhW8gap6X-66" value="Tidak melahirkan" style="edgeLabel;html=1;align=center;verticalAlign=middle;resizable=0;points=[];" vertex="1" connectable="0" parent="mlUw1hy7TO0qhW8gap6X-54">
          <mxGeometry x="-0.1039" relative="1" as="geometry">
            <mxPoint as="offset" />
          </mxGeometry>
        </mxCell>
        <mxCell id="mlUw1hy7TO0qhW8gap6X-45" value="Dokter Memeriksa Pasien (Sesuai Rekam Medis dan kebutuhan pasien)" style="rounded=1;whiteSpace=wrap;html=1;" vertex="1" parent="mlUw1hy7TO0qhW8gap6X-17">
          <mxGeometry x="400" y="30" width="120" height="60" as="geometry" />
        </mxCell>
        <mxCell id="mlUw1hy7TO0qhW8gap6X-62" value="" style="edgeStyle=orthogonalEdgeStyle;rounded=0;orthogonalLoop=1;jettySize=auto;html=1;" edge="1" parent="mlUw1hy7TO0qhW8gap6X-17" source="mlUw1hy7TO0qhW8gap6X-48" target="mlUw1hy7TO0qhW8gap6X-61">
          <mxGeometry relative="1" as="geometry" />
        </mxCell>
        <mxCell id="mlUw1hy7TO0qhW8gap6X-63" value="Jika melahirkan" style="edgeLabel;html=1;align=center;verticalAlign=middle;resizable=0;points=[];" vertex="1" connectable="0" parent="mlUw1hy7TO0qhW8gap6X-62">
          <mxGeometry x="-0.21" y="1" relative="1" as="geometry">
            <mxPoint as="offset" />
          </mxGeometry>
        </mxCell>
        <mxCell id="mlUw1hy7TO0qhW8gap6X-48" value="" style="rhombus;whiteSpace=wrap;html=1;rounded=1;" vertex="1" parent="mlUw1hy7TO0qhW8gap6X-17">
          <mxGeometry x="560" y="40" width="50" height="40" as="geometry" />
        </mxCell>
        <mxCell id="mlUw1hy7TO0qhW8gap6X-53" value="Doketer mencatat rekam medis hasil pemerik" style="rounded=1;whiteSpace=wrap;html=1;" vertex="1" parent="mlUw1hy7TO0qhW8gap6X-17">
          <mxGeometry x="400" y="130" width="120" height="60" as="geometry" />
        </mxCell>
        <mxCell id="mlUw1hy7TO0qhW8gap6X-61" value="Tindakan medis" style="rounded=1;whiteSpace=wrap;html=1;" vertex="1" parent="mlUw1hy7TO0qhW8gap6X-17">
          <mxGeometry x="700" y="40" width="120" height="40" as="geometry" />
        </mxCell>
        <mxCell id="mlUw1hy7TO0qhW8gap6X-78" value="" style="edgeStyle=orthogonalEdgeStyle;rounded=0;orthogonalLoop=1;jettySize=auto;html=1;" edge="1" parent="mlUw1hy7TO0qhW8gap6X-17" source="mlUw1hy7TO0qhW8gap6X-73" target="mlUw1hy7TO0qhW8gap6X-77">
          <mxGeometry relative="1" as="geometry" />
        </mxCell>
        <mxCell id="mlUw1hy7TO0qhW8gap6X-73" value="Pemeriksaan hasil dari tes lab" style="rounded=1;whiteSpace=wrap;html=1;" vertex="1" parent="mlUw1hy7TO0qhW8gap6X-17">
          <mxGeometry x="590" y="130" width="120" height="40" as="geometry" />
        </mxCell>
        <mxCell id="mlUw1hy7TO0qhW8gap6X-81" value="" style="edgeStyle=orthogonalEdgeStyle;rounded=0;orthogonalLoop=1;jettySize=auto;html=1;" edge="1" parent="mlUw1hy7TO0qhW8gap6X-17" source="mlUw1hy7TO0qhW8gap6X-77" target="mlUw1hy7TO0qhW8gap6X-80">
          <mxGeometry relative="1" as="geometry" />
        </mxCell>
        <mxCell id="mlUw1hy7TO0qhW8gap6X-84" style="edgeStyle=orthogonalEdgeStyle;rounded=0;orthogonalLoop=1;jettySize=auto;html=1;entryX=0;entryY=0.5;entryDx=0;entryDy=0;" edge="1" parent="mlUw1hy7TO0qhW8gap6X-17" source="mlUw1hy7TO0qhW8gap6X-77" target="mlUw1hy7TO0qhW8gap6X-82">
          <mxGeometry relative="1" as="geometry">
            <mxPoint x="860" y="100" as="targetPoint" />
            <Array as="points">
              <mxPoint x="770" y="100" />
              <mxPoint x="850" y="100" />
              <mxPoint x="850" y="60" />
            </Array>
          </mxGeometry>
        </mxCell>
        <mxCell id="mlUw1hy7TO0qhW8gap6X-77" value="" style="rhombus;whiteSpace=wrap;html=1;rounded=1;" vertex="1" parent="mlUw1hy7TO0qhW8gap6X-17">
          <mxGeometry x="747" y="130" width="50" height="40" as="geometry" />
        </mxCell>
        <mxCell id="mlUw1hy7TO0qhW8gap6X-80" value="Pembuatan Resep" style="rounded=1;whiteSpace=wrap;html=1;" vertex="1" parent="mlUw1hy7TO0qhW8gap6X-17">
          <mxGeometry x="830" y="130" width="120" height="40" as="geometry" />
        </mxCell>
        <mxCell id="mlUw1hy7TO0qhW8gap6X-82" value="Membuat Surat Rujukan" style="rounded=1;whiteSpace=wrap;html=1;" vertex="1" parent="mlUw1hy7TO0qhW8gap6X-17">
          <mxGeometry x="890" y="40" width="120" height="40" as="geometry" />
        </mxCell>
        <mxCell id="mlUw1hy7TO0qhW8gap6X-47" style="edgeStyle=orthogonalEdgeStyle;rounded=0;orthogonalLoop=1;jettySize=auto;html=1;" edge="1" parent="1" source="mlUw1hy7TO0qhW8gap6X-37" target="mlUw1hy7TO0qhW8gap6X-45">
          <mxGeometry relative="1" as="geometry" />
        </mxCell>
        <mxCell id="mlUw1hy7TO0qhW8gap6X-46" style="edgeStyle=orthogonalEdgeStyle;rounded=0;orthogonalLoop=1;jettySize=auto;html=1;entryX=0;entryY=0.5;entryDx=0;entryDy=0;exitX=0.5;exitY=1;exitDx=0;exitDy=0;" edge="1" parent="1" source="mlUw1hy7TO0qhW8gap6X-30" target="mlUw1hy7TO0qhW8gap6X-37">
          <mxGeometry relative="1" as="geometry">
            <mxPoint x="470" y="240" as="targetPoint" />
            <mxPoint x="240" y="580" as="sourcePoint" />
            <Array as="points">
              <mxPoint x="260" y="603" />
              <mxPoint x="450" y="603" />
              <mxPoint x="450" y="238" />
            </Array>
          </mxGeometry>
        </mxCell>
        <mxCell id="mlUw1hy7TO0qhW8gap6X-64" value="Staff Kasir" style="swimlane;horizontal=0;whiteSpace=wrap;html=1;" vertex="1" parent="1">
          <mxGeometry x="80" y="1130" width="1160" height="350" as="geometry" />
        </mxCell>
        <mxCell id="mlUw1hy7TO0qhW8gap6X-94" style="edgeStyle=orthogonalEdgeStyle;rounded=0;orthogonalLoop=1;jettySize=auto;html=1;entryX=0.5;entryY=0;entryDx=0;entryDy=0;" edge="1" parent="mlUw1hy7TO0qhW8gap6X-64" source="mlUw1hy7TO0qhW8gap6X-90" target="mlUw1hy7TO0qhW8gap6X-93">
          <mxGeometry relative="1" as="geometry" />
        </mxCell>
        <mxCell id="mlUw1hy7TO0qhW8gap6X-90" value="Menyediakan obat sesuai resep dokter" style="rounded=1;whiteSpace=wrap;html=1;" vertex="1" parent="mlUw1hy7TO0qhW8gap6X-64">
          <mxGeometry x="830" y="70" width="120" height="40" as="geometry" />
        </mxCell>
        <mxCell id="mlUw1hy7TO0qhW8gap6X-96" value="" style="edgeStyle=orthogonalEdgeStyle;rounded=0;orthogonalLoop=1;jettySize=auto;html=1;" edge="1" parent="mlUw1hy7TO0qhW8gap6X-64" source="mlUw1hy7TO0qhW8gap6X-93" target="mlUw1hy7TO0qhW8gap6X-95">
          <mxGeometry relative="1" as="geometry" />
        </mxCell>
        <mxCell id="mlUw1hy7TO0qhW8gap6X-93" value="Mencatat data obat" style="rounded=1;whiteSpace=wrap;html=1;" vertex="1" parent="mlUw1hy7TO0qhW8gap6X-64">
          <mxGeometry x="830" y="150" width="120" height="40" as="geometry" />
        </mxCell>
        <mxCell id="mlUw1hy7TO0qhW8gap6X-103" value="" style="edgeStyle=orthogonalEdgeStyle;rounded=0;orthogonalLoop=1;jettySize=auto;html=1;" edge="1" parent="mlUw1hy7TO0qhW8gap6X-64" source="mlUw1hy7TO0qhW8gap6X-95" target="mlUw1hy7TO0qhW8gap6X-102">
          <mxGeometry relative="1" as="geometry" />
        </mxCell>
        <mxCell id="mlUw1hy7TO0qhW8gap6X-95" value="Transaksi, Pembayaran obat, Pembayaran jasa Dokter dan Laboratorium" style="rounded=1;whiteSpace=wrap;html=1;" vertex="1" parent="mlUw1hy7TO0qhW8gap6X-64">
          <mxGeometry x="825" y="230" width="130" height="80" as="geometry" />
        </mxCell>
        <mxCell id="mlUw1hy7TO0qhW8gap6X-102" value="Kasir mencatat setiap transaksi" style="rounded=1;whiteSpace=wrap;html=1;" vertex="1" parent="mlUw1hy7TO0qhW8gap6X-64">
          <mxGeometry x="1002.5" y="250" width="130" height="40" as="geometry" />
        </mxCell>
        <mxCell id="mlUw1hy7TO0qhW8gap6X-69" style="edgeStyle=orthogonalEdgeStyle;rounded=0;orthogonalLoop=1;jettySize=auto;html=1;entryX=0.5;entryY=0;entryDx=0;entryDy=0;" edge="1" parent="1" source="mlUw1hy7TO0qhW8gap6X-53" target="mlUw1hy7TO0qhW8gap6X-68">
          <mxGeometry relative="1" as="geometry" />
        </mxCell>
        <mxCell id="mlUw1hy7TO0qhW8gap6X-71" style="edgeStyle=orthogonalEdgeStyle;rounded=0;orthogonalLoop=1;jettySize=auto;html=1;entryX=0.5;entryY=1;entryDx=0;entryDy=0;" edge="1" parent="1" source="mlUw1hy7TO0qhW8gap6X-61" target="mlUw1hy7TO0qhW8gap6X-70">
          <mxGeometry relative="1" as="geometry" />
        </mxCell>
        <mxCell id="mlUw1hy7TO0qhW8gap6X-76" style="edgeStyle=orthogonalEdgeStyle;rounded=0;orthogonalLoop=1;jettySize=auto;html=1;entryX=0;entryY=0.5;entryDx=0;entryDy=0;" edge="1" parent="1" source="mlUw1hy7TO0qhW8gap6X-68" target="mlUw1hy7TO0qhW8gap6X-73">
          <mxGeometry relative="1" as="geometry" />
        </mxCell>
        <mxCell id="mlUw1hy7TO0qhW8gap6X-85" value="Rujukan" style="text;html=1;align=center;verticalAlign=middle;resizable=0;points=[];autosize=1;strokeColor=none;fillColor=none;" vertex="1" parent="1">
          <mxGeometry x="815" y="808" width="70" height="30" as="geometry" />
        </mxCell>
        <mxCell id="mlUw1hy7TO0qhW8gap6X-87" style="edgeStyle=orthogonalEdgeStyle;rounded=0;orthogonalLoop=1;jettySize=auto;html=1;entryX=0.5;entryY=1;entryDx=0;entryDy=0;" edge="1" parent="1" source="mlUw1hy7TO0qhW8gap6X-82" target="mlUw1hy7TO0qhW8gap6X-86">
          <mxGeometry relative="1" as="geometry" />
        </mxCell>
        <mxCell id="mlUw1hy7TO0qhW8gap6X-89" style="edgeStyle=orthogonalEdgeStyle;rounded=0;orthogonalLoop=1;jettySize=auto;html=1;entryX=0.5;entryY=1;entryDx=0;entryDy=0;" edge="1" parent="1" source="mlUw1hy7TO0qhW8gap6X-86" target="mlUw1hy7TO0qhW8gap6X-88">
          <mxGeometry relative="1" as="geometry" />
        </mxCell>
        <mxCell id="mlUw1hy7TO0qhW8gap6X-92" style="edgeStyle=orthogonalEdgeStyle;rounded=0;orthogonalLoop=1;jettySize=auto;html=1;entryX=0.5;entryY=0;entryDx=0;entryDy=0;" edge="1" parent="1" source="mlUw1hy7TO0qhW8gap6X-80" target="mlUw1hy7TO0qhW8gap6X-90">
          <mxGeometry relative="1" as="geometry" />
        </mxCell>
        <mxCell id="mlUw1hy7TO0qhW8gap6X-105" style="edgeStyle=orthogonalEdgeStyle;rounded=0;orthogonalLoop=1;jettySize=auto;html=1;entryX=0.5;entryY=1;entryDx=0;entryDy=0;" edge="1" parent="1" source="mlUw1hy7TO0qhW8gap6X-102" target="mlUw1hy7TO0qhW8gap6X-99">
          <mxGeometry relative="1" as="geometry" />
        </mxCell>
      </root>
    </mxGraphModel>
  </diagram>
</mxfile>
